<?xml version="1.0" encoding="UTF-8"?>
<svg data-bbox="0 0 1414 306.577" viewBox="0 0 1415 307" height="307" width="1415" xmlns="http://www.w3.org/2000/svg" data-type="color">
    <g>
        <path d="M456 0H294c-36.83 0-53 18.439-53 45v6c0 35.918 15.955 41.371 20 42v2s-20 4.37-20 37v6c0 32.259 22.326 46 48 46h167v-30H287c-8.5-.845-14.111-8.964-15-15a46.272 46.272 0 0 1 0-16c0-8.555 10.489-16 19-16h165V77H288c-7.89 0-16-10.565-16-15a49.22 49.22 0 0 1 0-17c0-6.36 10.2-15 16-15h168V0z" fill="#c30e2e" fill-rule="evenodd" data-color="1"/>
        <path d="M32 0s.017 115.5 0 127c0 15.065 14.24 27 36 27 15 .034 148 0 148 0v30s-158.851-.223-166 0c-22.049 0-48-12.181-48-40C1.853 116.015 2 0 2 0h30zm479 0s61.108 122.09 72 143c4.225 6.323 7.627 6.28 11 0 10.9-22.363 72-143 72-143h29s-64.811 131.367-83 166c-12.822 23.425-33.569 23.65-47 1-15.8-30.4-84-167-84-167h30zm209 0v30h169c8.4 0 16 11.239 16 20v7c0 9.267-7.643 20-19 20H720v30l148 77h64l-149-77h102c30.686 0 50-16.291 50-44V41c0-27.247-23.8-41-47-41H720zm240 0v99c0 46.374 32.071 85 102 85h11c71.36 0 101-40.617 101-89V0h-30v95c0 36.746-28.89 59-71 59h-14c-37.8 0-70-21.141-70-58V0h-29zm239 184V14c0-7.41 8.97-14 13-14h9c3.34 0 10.16 5.423 13.18 11.986 24.66 47.341 45.62 91.74 69.82 135.014 2.65 0 1.99.124 4.12.124 25.18-45.484 52.55-101.262 68.74-133.133C1379.33 6.016 1388.75 0 1392 0h8c2.89 0 14 1.351 14 20v164h-30V62s-32.07 62.585-59 112c-11.68 13.2-25.29 13.15-37 0-19.02-32.711-59-113-59-113v123h-30zM131 305l-7-17h-23l-7 17h-7l25-56 26 56h-7zm157 0l-7-17h-23l-7 17h-7l26-56 25 56h-7zm300-56c13.434.46 18 6 18 6v8s-5.435-8-18-8c-12.6 0-22 12.323-22 16-1.34 5.8-1.237 7.069 0 14 3.567 8.8 10.619 15.332 22 16 10.171-.393 18-8 18-8v8a41.392 41.392 0 0 1-18.21 4.93c-15.556.359-26.671-10.3-28.79-23.93a92.177 92.177 0 0 1 0-10c1.978-8.061 10.433-22.343 29-23zm206 2h6v55l-41-42v41h-6v-56l41 43v-41zm87-1c17.122 0 29 11.969 29 28s-13.591 28-30 28-29-11.778-29-28 12.878-28 30-28zm290 32v-5h23c-.66 21.218-13.67 29.577-26.9 29.577-15.36 0-29.1-10.264-29.1-29.577 0-29.093 29.38-27 31-27a26.218 26.218 0 0 1 21 10l-5 4a23.1 23.1 0 0 0-18-9c-21.3 0-23 20.1-23 23 0 5.066 3.85 23 23 23 18.45 0 20-19 20-19h-16zm225-33c13.1.993 14 9 14 9l-4 3s-3.43-7-10-7-9 6.41-9 8-.37 3.633 3 7 11.44 4.409 16 7 7.69 7.408 8 14c-.09 1.756.59 15-18 16-9.73-.658-12.34-1.976-17-13 2.36-.862 2.22-.693 6-2 2.03 8.068 5.5 9.785 11 10 7.3-.272 10.83-4.506 11-10 .32-8.822-9-12-9-12s-8.68-1.683-12-5a17.3 17.3 0 0 1-5-12c0-4.13 3.38-12.494 15-13zM0 251c18.4-.419 33.871-.732 41 10 2.207 3.323 4.281 6.117 5 13 0 6.57-.407 9.7-2 14-6.616 17.858-19.8 17.551-44 17v-54zm173 0h37v5h-15v49h-6v-49h-16v-5zm223 0h38v5h-16v49h-6v-49h-16v-5zm85 0h29v5h-23v17h23v5h-23v21h23v6h-29v-54zm177 0h6v21h30v-21h6v54h-6v-28h-30v28h-6v-54zm303 0h6v48h21v6h-27v-54zm282 0h7v54h-7v-54zm60 0h29v5h-23v16h23v6h-23v21h23v6h-29v-54zm-423 4c-13.19 0-22 10.142-22 22a23 23 0 0 0 46 0c0-12.008-10.809-22-24-22zM6 256v43s17.053.476 22-2c9.288-4.872 10.9-9.393 11-20 0-9.489-3.759-15.552-11.272-19C22.857 255.922 6 256 6 256zm97 27h19l-9-20zm157 0h18l-8-20zm800-33c17.12 0 29 11.969 29 28s-13.59 28-30 28-29-11.778-29-28 12.88-28 30-28zm-1 5c-13.19 0-22 10.142-22 22a23 23 0 0 0 46 0c0-12.008-10.81-22-24-22z" fill="#53585a" fill-rule="evenodd" data-color="2"/>
    </g>
</svg>
